<svg xmlns="http://www.w3.org/2000/svg" xmlns:xlink="http://www.w3.org/1999/xlink" viewBox="0,0,256,256" width="50px" height="50px" fill-rule="nonzero"><g fill="#34d399" fill-rule="nonzero" stroke="none" stroke-width="1" stroke-linecap="butt" stroke-linejoin="miter" stroke-miterlimit="10" stroke-dasharray="" stroke-dashoffset="0" font-family="none" font-weight="none" font-size="none" text-anchor="none" style="mix-blend-mode: normal"><g transform="scale(5.12,5.12)"><path d="M15,4c-2.19733,0 -4,1.80267 -4,4v2.83203c-0.01785,0.10799 -0.01785,0.21818 0,0.32617v2.8418h-5c-2.19733,0 -4,1.80267 -4,4v14c0,2.19733 1.80267,4 4,4h3v6c0,2.19733 1.80267,4 4,4h31c2.19733,0 4,-1.80267 4,-4v-14c0,-1.29313 -0.84268,-2.39513 -2,-2.8125v-14.01953c0.01785,-0.10799 0.01785,-0.21818 0,-0.32617v-2.8418c0,-2.19733 -1.80267,-4 -4,-4zM15,6h27c1.11667,0 2,0.88333 2,2v2h-20.8457c-0.05615,-0.00939 -0.113,-0.01396 -0.16992,-0.01367c-0.04844,0.00105 -0.09675,0.00562 -0.14453,0.01367h-9.83984v-2c0,-1.11667 0.88333,-2 2,-2zM13,12h9v2.56055c-0.59163,-0.3469 -1.26931,-0.56055 -2,-0.56055h-7zM24,12h9v7h-9v-1zM35,12h9v7h-9zM6,16h14c1.11667,0 2,0.88333 2,2v3v11c0,1.11667 -0.88333,2 -2,2h-14c-1.11667,0 -2,-0.88333 -2,-2v-14c0,-1.11667 0.88333,-2 2,-2zM13,19c-3.516,0 -5.63477,2.686 -5.63477,6c0,3.314 2.11077,6 5.63477,6c3.525,0 5.63477,-2.68505 5.63477,-5.99805c0,-3.315 -2.11877,-6.00195 -5.63477,-6.00195zM24,21h9v7h-9zM35,21h9v7h-9zM13,21.02734c1.989,0 3.1875,1.78061 3.1875,3.97461c0,2.194 -1.1935,3.97266 -3.1875,3.97266c-1.995,0 -3.1875,-1.77766 -3.1875,-3.97266c0,-2.195 1.1985,-3.97461 3.1875,-3.97461zM24,30h9v3.75l-4.50195,1.875l-4.84375,-2.01758c0.21905,-0.49327 0.3457,-1.03601 0.3457,-1.60742zM35,30h6.99805l-6.99805,2.91602zM46,30.5v11.5c0,0.3026 -0.0707,0.58445 -0.1875,0.83984l-14.71484,-6.13086zM22.33984,35.22461l21.05859,8.77539h-30.39844c-1.11667,0 -2,-0.88333 -2,-2v-6h9c0.87449,0 1.67912,-0.29311 2.33984,-0.77539z"></path></g></g></svg>